<?xml version="1.0" encoding="UTF-8" standalone="no"?>
<!-- Created with Inkscape (http://www.inkscape.org/) -->

<svg
   xmlns:dc="http://purl.org/dc/elements/1.1/"
   xmlns:cc="http://creativecommons.org/ns#"
   xmlns:rdf="http://www.w3.org/1999/02/22-rdf-syntax-ns#"
   xmlns:svg="http://www.w3.org/2000/svg"
   xmlns="http://www.w3.org/2000/svg"
   xmlns:xlink="http://www.w3.org/1999/xlink"
   xmlns:sodipodi="http://sodipodi.sourceforge.net/DTD/sodipodi-0.dtd"
   xmlns:inkscape="http://www.inkscape.org/namespaces/inkscape"
   width="128"
   height="128"
   viewBox="0 0 128 128"
   id="svg4343"
   version="1.1"
   inkscape:version="0.91 r"
   sodipodi:docname="lliurex-gva-editor.svg">
  <defs
     id="defs4345">
    <linearGradient
       inkscape:collect="always"
       id="linearGradient4778">
      <stop
         style="stop-color:#06203c;stop-opacity:1"
         offset="0"
         id="stop4780" />
      <stop
         style="stop-color:#0b396a;stop-opacity:1"
         offset="1"
         id="stop4782" />
    </linearGradient>
    <linearGradient
       inkscape:collect="always"
       id="linearGradient4770">
      <stop
         style="stop-color:#0c417b;stop-opacity:1;"
         offset="0"
         id="stop4772" />
      <stop
         style="stop-color:#115eb2;stop-opacity:1"
         offset="1"
         id="stop4774" />
    </linearGradient>
    <linearGradient
       inkscape:collect="always"
       id="linearGradient4594">
      <stop
         style="stop-color:#424242;stop-opacity:1"
         offset="0"
         id="stop4596" />
      <stop
         style="stop-color:#d8d8d8;stop-opacity:1"
         offset="1"
         id="stop4598" />
    </linearGradient>
    <linearGradient
       x1="28.875"
       y1="29"
       gradientTransform="matrix(-0.96159168,0,0,0.96159168,91.68216,973.8175)"
       x2="29"
       gradientUnits="userSpaceOnUse"
       y2="16"
       id="linearGradient3013">
      <stop
         offset="0"
         style="stop-color:#fff"
         id="stop7432" />
      <stop
         offset="1"
         style="stop-color:#fff;stop-opacity:0"
         id="stop7434" />
    </linearGradient>
    <linearGradient
       id="SVGID_1_"
       gradientUnits="userSpaceOnUse"
       x1="12.0283"
       y1="30.6548"
       x2="50.007801"
       y2="30.6548">
      <stop
         offset="0"
         style="stop-color:#D1D1D1"
         id="stop4140" />
      <stop
         offset="0.0079"
         style="stop-color:#D2D2D2"
         id="stop4142" />
      <stop
         offset="0.303"
         style="stop-color:#EBEBEB"
         id="stop4144" />
      <stop
         offset="0.5728"
         style="stop-color:#FAFAFA"
         id="stop4146" />
      <stop
         offset="0.7923"
         style="stop-color:#FFFFFF"
         id="stop4148" />
      <stop
         offset="0.8536"
         style="stop-color:#FBFBFB"
         id="stop4150" />
      <stop
         offset="0.913"
         style="stop-color:#EFEFEF"
         id="stop4152" />
      <stop
         offset="0.9714"
         style="stop-color:#DCDCDC"
         id="stop4154" />
      <stop
         offset="1"
         style="stop-color:#D0D0D0"
         id="stop4156" />
    </linearGradient>
    <linearGradient
       id="SVGID_2_"
       gradientUnits="userSpaceOnUse"
       x1="31.0215"
       y1="56.521"
       x2="31.0215"
       y2="4.7886">
      <stop
         offset="0.0056"
         style="stop-color:#404040"
         id="stop4161" />
      <stop
         offset="0.1348"
         style="stop-color:#787878"
         id="stop4163" />
      <stop
         offset="0.4326"
         style="stop-color:#999999"
         id="stop4165" />
      <stop
         offset="0.6415"
         style="stop-color:#B7B7B7"
         id="stop4167" />
      <stop
         offset="0.865"
         style="stop-color:#D0D0D0"
         id="stop4169" />
      <stop
         offset="1"
         style="stop-color:#D9D9D9"
         id="stop4171" />
    </linearGradient>
    <linearGradient
       inkscape:collect="always"
       xlink:href="#linearGradient4594"
       id="linearGradient4600"
       x1="-13.131983"
       y1="895.28345"
       x2="-13.131983"
       y2="796.79358"
       gradientUnits="userSpaceOnUse"
       gradientTransform="translate(82.071429,141.07143)" />
    <linearGradient
       inkscape:collect="always"
       xlink:href="#linearGradient4770"
       id="linearGradient4776"
       x1="5.0520287"
       y1="988.69788"
       x2="121.83773"
       y2="988.69788"
       gradientUnits="userSpaceOnUse" />
    <linearGradient
       inkscape:collect="always"
       xlink:href="#linearGradient4778"
       id="linearGradient4784"
       x1="22.258523"
       y1="994.5749"
       x2="104.63124"
       y2="994.5749"
       gradientUnits="userSpaceOnUse" />
  </defs>
  <sodipodi:namedview
     id="base"
     pagecolor="#ffffff"
     bordercolor="#666666"
     borderopacity="1.0"
     inkscape:pageopacity="0.0"
     inkscape:pageshadow="2"
     inkscape:zoom="2.8"
     inkscape:cx="27.701892"
     inkscape:cy="113.44799"
     inkscape:document-units="px"
     inkscape:current-layer="layer1"
     showgrid="false"
     units="px"
     inkscape:window-width="1918"
     inkscape:window-height="1015"
     inkscape:window-x="0"
     inkscape:window-y="0"
     inkscape:window-maximized="1" />
  <metadata
     id="metadata4348">
    <rdf:RDF>
      <cc:Work
         rdf:about="">
        <dc:format>image/svg+xml</dc:format>
        <dc:type
           rdf:resource="http://purl.org/dc/dcmitype/StillImage" />
        <dc:title />
      </cc:Work>
    </rdf:RDF>
  </metadata>
  <g
     inkscape:label="Capa 1"
     inkscape:groupmode="layer"
     id="layer1"
     transform="translate(0,-924.36216)">
    <circle
       style="color:#000000;display:inline;overflow:visible;visibility:visible;opacity:1;fill:url(#linearGradient4600);fill-opacity:1;fill-rule:nonzero;stroke:none;stroke-width:1.5;stroke-linecap:round;stroke-linejoin:round;stroke-miterlimit:4;stroke-dasharray:none;stroke-opacity:1;marker:none;enable-background:accumulate"
       id="path4136-9"
       cx="63.444885"
       cy="988.69788"
       r="61.60714" />
    <circle
       style="color:#000000;display:inline;overflow:visible;visibility:visible;opacity:1;fill:url(#linearGradient4776);fill-opacity:1;fill-rule:nonzero;stroke:none;stroke-width:1.5;stroke-linecap:round;stroke-linejoin:round;stroke-miterlimit:4;stroke-dasharray:none;stroke-opacity:1;marker:none;enable-background:accumulate"
       id="path4136"
       cx="63.444881"
       cy="988.69788"
       r="58.392853" />
    <path
       d="m 26.7276,955.34351 c -1.230766,0.0143 -1.783915,0.61004 -1.783915,1.7832 0,9.83258 0.0469,17.36841 -0.01034,26.30225 2.559787,0 76.677685,-6.59606 76.677685,-9.4367 l 0,-11.50346 c 0,-1.17334 -0.9879,-1.79747 -2.218302,-1.7832 l -36.12054,0 c -3.650214,0 -6.239423,-5.36209 -8.91601,-5.36209 l -27.628931,0 3.56e-4,0 z"
       style="fill:#ffffff;fill-opacity:1;stroke:#ffffff;stroke-width:1.78320205;stroke-linecap:round;stroke-linejoin:round"
       id="path3468"
       inkscape:connector-curvature="0" />
    <path
       d="m 24.332225,969.65371 c -1.913019,0.22112 -0.891244,2.50007 -1.043708,3.78219 0.699907,15.10372 1.406768,29.9043 2.102395,45.008 0.609498,1.7226 2.843137,0.8399 4.258465,1.0592 l 70.579133,0 c 1.94369,-0.1908 1.1359,-2.5107 1.40873,-3.8392 0.7008,-15.1037 1.40695,-29.90251 2.1024,-45.00625 -0.44759,-1.70296 -2.70869,-0.75608 -4.03539,-1.00394 l -75.372382,0 -1.78e-4,0 z"
       style="fill:url(#linearGradient4784);fill-opacity:1;stroke:#f4f3ea;stroke-width:1.78320205;stroke-linecap:round;stroke-linejoin:round"
       id="path3388"
       inkscape:connector-curvature="0" />
    <path
       inkscape:connector-curvature="0"
       id="path7013"
       style="fill:#ffffff;fill-rule:evenodd"
       d="m 87.513033,992.51083 -2.80676,0 -1.872362,0 2.808543,0 1.870579,0 z" />
    <path
       inkscape:connector-curvature="0"
       id="path6964"
       style="fill:#ffffff;fill-opacity:1;stroke:none;stroke-linecap:round;stroke-linejoin:round;stroke-dashoffset:0.69999999;stroke-opacity:0.99237001"
       d="m 76.116589,982.30198 c 1.223277,0 2.136276,0.92191 2.136276,2.16124 l 0,23.76298 c 0,1.2393 -0.912999,2.1612 -2.136276,2.1612 l -25.624612,0 c -1.223277,0 -2.134493,-0.9219 -2.134493,-2.1612 l 0,-23.76298 c 0,-1.23933 0.911216,-2.16124 2.134493,-2.16124 l 25.624612,0 z" />
    <path
       inkscape:connector-curvature="0"
       id="rect6100"
       style="fill:#ffffff;fill-rule:evenodd"
       d="m 79.622364,1004.6776 c 0.224684,0 0.41727,0.1141 0.54566,0.2799 l 4.384894,4.4919 c 0.03745,0.148 0.108775,0.305 0.153355,0.4565 l 0,6.2002 c 0,0.4084 -0.322759,0.7365 -0.716847,0.7365 l -7.300429,0 c -0.196152,0 -0.383388,-0.077 -0.511779,-0.2104 l -4.367062,-4.4919 c -0.12839,-0.1338 -0.205068,-0.3228 -0.205068,-0.5261 l 0,-6.2002 c 0,-0.2032 0.07668,-0.3923 0.205068,-0.526 0.128391,-0.1337 0.313844,-0.2104 0.511779,-0.2104 l 7.300429,0 z" />
    <path
       inkscape:connector-curvature="0"
       id="path6105"
       style="fill:#ffffff;fill-rule:evenodd"
       d="m 84.023307,1009.3567 -7.05613,0 c -0.378039,0 -0.682967,0.3192 -0.682967,0.7168 l 0,6.0522 c 0,0.3977 0.304928,0.7169 0.682967,0.7169 l 7.05613,0 c 0.378039,0 0.682966,-0.3192 0.682966,-0.7169 l 0,-6.0522 c 0,-0.3976 -0.304927,-0.7168 -0.682966,-0.7168 z" />
    <path
       inkscape:connector-curvature="0"
       id="path7253"
       style="opacity:0.12312999;fill:#ffffff;fill-rule:evenodd"
       d="m 78.154789,1004.6776 4.679122,4.6791 -3.742941,0 -4.679122,-4.6791 3.742941,0" />
    <path
       inkscape:connector-curvature="0"
       id="path6126"
       style="fill:#ffffff;fill-rule:evenodd"
       d="m 74.411848,1004.6776 8.891045,3.7429 -3.275742,0 -4.679122,-2.8067 -0.936181,-0.9362" />
    <path
       inkscape:connector-curvature="0"
       id="path7235"
       style="opacity:0.53357999;fill:#ffffff;stroke:#ffffff;stroke-width:1.78320205;stroke-linecap:round;stroke-linejoin:round;stroke-dashoffset:0.69999999"
       d="m 79.617015,1005.1448 c 0.02318,0 0.05171,0 0.146222,0.1177 0.02853,0.021 0.05885,0.041 0.08916,0.059 0.01783,0.02 0.03745,0.039 0.05706,0.057 0.01962,0.021 0.03923,0.041 0.05885,0.059 l 0.03031,0 c 0.01783,0.021 0.03745,0.041 0.05706,0.059 l 0.176537,0.1747 c 0.09986,0.095 0.219333,0.1641 0.35129,0.2051 l 3.976541,1.1412 c 0.374472,0.1944 0.499296,0.3264 0.556359,0.4387 0,0 -0.0321,0.1248 0,0.087 -0.07668,0.093 -0.337025,0.2354 -0.789959,0.321 -0.319193,0.066 -0.577757,0.2942 -0.681183,0.6027 -0.101642,0.3085 -0.0321,0.6473 0.18367,0.8898 l 0.320976,0.3513 c 0.01962,0.082 0.05171,0.1587 0.08916,0.2924 0.0071,0.025 -0.0089,0.032 0,0.057 l 0,6.0843 c 0,0.05 -0.0018,0.107 -0.05885,0.1747 -0.03032,0.034 -0.09629,0.059 -0.146223,0.059 l -7.341442,0 c -0.08559,0 -0.156922,-0.018 -0.203285,-0.059 l 0,-0.029 -4.358146,-4.5044 c -0.04815,-0.05 -0.05885,-0.073 -0.05885,-0.1747 l 0,-6.2002 c 0,-0.1017 0.0107,-0.1534 0.05885,-0.2051 0.03388,-0.036 0.144439,-0.059 0.174754,-0.059 l 7.311128,0 z" />
    <path
       inkscape:connector-curvature="0"
       id="path7229"
       style="fill:#ffffff;stroke:#0c417b;stroke-width:1.78320205;stroke-linecap:round;stroke-linejoin:round;stroke-dashoffset:0.69999999;stroke-opacity:1"
       d="m 79.617015,1004.2389 c 0.363773,0 0.647302,0.2033 0.848804,0.4387 l 0.02853,-0.03 0.03032,0.059 0.320976,0.2925 3.978324,1.1412 c 0.03031,0 0.05885,0.018 0.08738,0.029 0.513562,0.2568 0.843454,0.5189 1.023558,0.8774 0.17832,0.3584 0.108775,0.8113 -0.117692,1.0824 -0.306711,0.3691 -0.802441,0.5171 -1.316003,0.6134 l 0.379822,0.4101 c 0.0535,0.048 0.09451,0.1088 0.117691,0.1748 0.03032,0.1141 0.06598,0.296 0.117692,0.469 0.01426,0.037 0.02496,0.077 0.02853,0.1159 l 0,6.2305 c 0,0.2799 -0.105209,0.5439 -0.292445,0.7596 -0.187236,0.2158 -0.477898,0.3799 -0.81849,0.3799 l -7.341442,0 c -0.301362,0 -0.613422,-0.107 -0.847021,-0.3496 l -4.358146,-4.5043 c -0.210418,-0.2194 -0.320976,-0.5047 -0.320976,-0.8185 l 0,-6.2002 c 0,-0.3139 0.110558,-0.5992 0.320976,-0.8185 0.210418,-0.2158 0.517129,-0.3513 0.81849,-0.3513 l 7.311128,0 z" />
    <path
       inkscape:connector-curvature="0"
       id="path7184"
       style="fill:#ffffff;fill-rule:evenodd"
       d="m 74.411848,1004.6776 10.294425,2.3395 -1.872362,1.4034 -2.80676,0 -4.679122,-2.8067 -0.936181,-0.9362" />
    <path
       inkscape:connector-curvature="0"
       id="path7171"
       style="fill:#ffffff;fill-rule:evenodd"
       d="m 78.154789,1004.6776 6.551484,1.8706 -3.742941,0 -6.551484,-1.8706 3.742941,0" />
    <path
       inkscape:connector-curvature="0"
       id="rect7173"
       style="fill:#ffffff;fill-rule:evenodd"
       d="m 84.706273,1006.5482 -3.47546,0 -0.267481,0 c 1.870579,0.9361 0.467199,1.8723 -0.936181,1.8723 l 3.742941,0 c 1.40338,0 2.808543,-0.9362 0.936181,-1.8723 z" />
    <path
       inkscape:connector-curvature="0"
       id="path7275"
       style="fill:#ffffff;fill-rule:evenodd"
       d="m 82.454089,1011.2273 -3.919478,0 c -0.210418,0 -0.379822,0.1836 -0.379822,0.4101 l 0,2.9245 c 0,0.2264 0.169404,0.4101 0.379822,0.4101 l 3.919478,0 c 0.210418,0 0.379822,-0.1837 0.379822,-0.4101 l 0,-2.9245 c 0,-0.2265 -0.169404,-0.4101 -0.379822,-0.4101 z" />
    <path
       inkscape:connector-curvature="0"
       id="rect7327"
       style="fill:#0c417b;fill-opacity:1;fill-rule:evenodd"
       d="m 64.295743,990.23011 c 0.615205,0 1.110935,0.49573 1.110935,1.10915 l 0,0.2764 c 0,0.28175 0.221117,0.52248 0.524261,0.52248 l 1.50324,0 c 0.613421,0 1.110935,0.67583 1.110935,1.291 l 0,6.19663 c 0,0.61343 -0.497514,1.11093 -1.110935,1.11093 l -8.234827,0 c -0.615205,0 -1.112718,-0.4975 -1.112718,-1.11093 l 0,-6.19663 c 0,-0.61517 0.497513,-1.291 1.112718,-1.291 l 1.503239,0 c 0.251432,0.0178 0.522478,-0.17832 0.522478,-0.50643 l 0,-0.29245 c 0,-0.61342 0.495731,-1.10915 1.110935,-1.10915 l 1.959739,0 z" />
    <path
       inkscape:connector-curvature="0"
       id="path2709"
       style="fill:none;stroke:url(#linearGradient3013);stroke-width:1.78320205;stroke-linecap:round;stroke-dashoffset:0.69999999"
       d="m 62.387717,989.21189 c -1.146599,0 -1.98827,0.88803 -2.232569,1.94727 l -0.62947,0 c -1.326702,0 -2.462602,1.06457 -2.462602,2.40372 l 0,5.6688 c 0,1.34092 1.121634,2.46262 2.462602,2.46262 l 7.558993,0 c 1.339185,0 2.460819,-1.1217 2.460819,-2.46262 l 0,-5.6688 c 0,-1.33915 -1.134117,-2.40372 -2.460819,-2.40372 l -0.574191,0 c -0.254998,-1.06816 -1.141249,-1.94727 -2.289631,-1.94727 l -1.833132,0 z" />
    <path
       inkscape:connector-curvature="0"
       id="path7352"
       style="fill:#ffffff;fill-opacity:1;stroke:#ffffff;stroke-width:1.78320205px;stroke-linecap:round"
       d="m 66.200203,998.33651 0,-1.92229" />
    <path
       inkscape:connector-curvature="0"
       id="path7362"
       style="fill:#ffffff;fill-opacity:1;stroke:#ffffff;stroke-width:1.78320205px;stroke-linecap:round"
       d="m 64.277911,998.33651 0,-1.92229" />
    <path
       inkscape:connector-curvature="0"
       id="path7364"
       style="fill:#ffffff;fill-opacity:1;stroke:#ffffff;stroke-width:1.78320205px;stroke-linecap:round"
       d="m 62.353836,998.33651 0,-1.92229" />
    <path
       inkscape:connector-curvature="0"
       id="path7366"
       style="fill:#ffffff;fill-opacity:1;stroke:#ffffff;stroke-width:1.78320205px;stroke-linecap:round"
       d="m 60.431545,998.33651 0,-1.92229" />
    <path
       inkscape:connector-curvature="0"
       id="path7506"
       style="fill:#ffffff;fill-rule:evenodd;stroke:#0c417b;stroke-width:0.89160103;stroke-linejoin:round;stroke-opacity:1"
       d="m 78.447234,1009.8827 c 0,0 3.921262,3.0582 7.575042,6.0825 1.827782,1.5122 3.461196,3.0154 4.415209,4.4759 0.477898,0.7293 0.925481,1.5175 0.615204,2.6017 -0.155138,0.5421 -0.572408,1.0503 -1.023558,1.316 -0.45115,0.2675 -0.89695,0.3798 -1.40338,0.4386 -1.98827,0.2301 -4.42769,-0.3673 -7.341442,-1.1983 -2.911969,-0.8309 -6.241207,-1.949 -9.591844,-3.0421 -3.350636,-1.0931 -6.735154,-2.1577 -9.67922,-2.8068 -2.94585,-0.6491 -5.461948,-0.8292 -6.902775,-0.4689 -0.681183,0.1711 -0.697232,0.2817 -0.702582,0.2924 -0.0036,0.018 -0.05884,0.3138 0.205068,0.8773 0.531395,1.127 2.102396,2.9173 3.919478,4.6221 3.635949,3.4077 8.275841,6.6674 8.275841,6.6674 l -1.63698,2.2807 c 0,0 -4.718352,-3.2918 -8.570068,-6.901 -1.924075,-1.8064 -3.628816,-3.6431 -4.502585,-5.4994 -0.436885,-0.9273 -0.727547,-1.9776 -0.32276,-3.0403 0.40657,-1.0646 1.44261,-1.7512 2.632006,-2.0472 2.303897,-0.5759 5.096391,-0.1925 8.218778,0.4958 3.122387,0.6901 6.567533,1.7368 9.943135,2.837 3.375601,1.1021 6.670958,2.2415 9.475935,3.0422 2.724733,0.7775 4.957302,1.1412 6.052188,1.0521 -0.579541,-0.8863 -2.146976,-2.3895 -3.889164,-3.8303 -3.48081,-2.8835 -7.457351,-5.9666 -7.457351,-5.9666 l 1.695825,-2.2808 z" />
    <path
       inkscape:connector-curvature="0"
       id="path7512"
       style="fill:#ffffff;fill-rule:evenodd"
       d="m 82.751884,1009.3852 -0.297795,1.8724 -3.917695,0 c -0.210417,0 -0.381605,0.1819 -0.381605,0.4083 l 0,2.9245 -1.870579,-0.2924 0,-4.1817 c 0,-0.3958 0.294229,-0.7311 0.672267,-0.7311 l 5.795407,0 z" />
  </g>
</svg>
